/* XPM */
static char *_625410662544[] = {
/* columns rows colors chars-per-pixel */
"50 50 98 2 ",
"   c #000000",
".  c #000000",
"X  c #000000",
"o  c #000000",
"O  c #000000",
"+  c #000000",
"@  c #000000",
"#  c #000000",
"$  c #000000",
"%  c #000000",
"&  c #000000",
"*  c #000000",
"=  c #000000",
"-  c #000000",
";  c #000000",
":  c #FF0000",
">  c #000000",
",  c #000000",
"<  c #000000",
"1  c #000000",
"2  c #000000",
"3  c #000000",
"4  c #000000",
"5  c #000000",
"6  c #000000",
"7  c #000000",
"8  c #000000",
"9  c #000000",
"0  c #000000",
"q  c #000000",
"w  c #000000",
"e  c #000000",
"r  c #000000",
"t  c #000000",
"y  c #000000",
"u  c #000000",
"i  c #000000",
"p  c #000000",
"a  c #000000",
"s  c #000000",
"d  c #000000",
"f  c #000000",
"g  c #000000",
"h  c #000000",
"j  c #000000",
"k  c #000000",
"l  c #000000",
"z  c #000000",
"x  c #000000",
"c  c #000000",
"v  c #000000",
"b  c #000000",
"n  c #000000",
"m  c #000000",
"M  c #000000",
"N  c #000000",
"B  c #000000",
"V  c #000000",
"C  c #000000",
"Z  c #000000",
"A  c #000000",
"S  c #000000",
"D  c #000000",
"F  c #000000",
"G  c #000000",
"H  c #000000",
"J  c #000000",
"K  c #000000",
"L  c #000000",
"P  c #000000",
"I  c #000000",
"U  c #000000",
"Y  c #000000",
"T  c #000000",
"R  c #000000",
"E  c #000000",
"W  c #000000",
"Q  c #000000",
"!  c #000000",
"~  c #000000",
"^  c #000000",
"/  c #000000",
"(  c #000000",
")  c #000000",
"_  c #000000",
"`  c #000000",
"'  c #000000",
"]  c #000000",
"[  c #000000",
"{  c #000000",
"}  c #000000",
"|  c #000000",
" . c #000000",
".. c #000000",
"X. c #000000",
"o. c #000000",
"O. c #000000",
"+. c #000000",
/* pixels */
"+.} o.X.{ +.! +.} } +.! +.! +.} } +.! +.{ } O.' +.' +.{ { O.! +.) .. .} +.! +.} } +.! +.! +.X.} +.! ",
"! +.} } +.) +.} O.o.} +.! +.} } | / | ( | ( [ | ( [ [ [ | [ o.( | ` } .._ +.) O.} } +.} +.} o.O.} +.",
"+.}  ...} ..} ..} } } } +.{ } | o.| ~ Y G V v c g g g b V G Y ^ ` o.` _ ..} o.} } o.} O.} } } } X.} ",
"} } } } } } ..} } ..} +.[ | | ^ I M r + % % & & * * = & % X + i n I ^ ` ` ` |  .O.} } } } } ..} } X.",
"} X.} } ..} } } .. .} | ` Q Z y 1 % - 3 0 0 0 0 q ; ; ; ; 0 5 - & 1 y S W | | X.} } } }  .} } ..} } ",
"+.} O.} } o.} +.} ` | ( K e . * : : : : : : : : : : : : : : : : : q $ 1 r F | ( | o.} O.} +.} } X.} ",
"' +.}  .o.} +.] ` | T x . 4 3 : : : : : : : : : : : : : : : : : : : : 0 - . f E | / +.) +.} } } } +.",
"+.} O.} { +.' | ` L w & q : : : : : : : : : : : : : : : : : : : : : : : : : & # P | ^ +.! +.} } +.! ",
"! +.} } +./ o.| S X 2 0 : : : : : : : : : : : : : : : : : : : : : : : : : : q 4 o S [ ( +.} } } ! +.",
"+.} X.} } | ` A . 0 q : : : : : : : : : : : : : : : : : : : : : : : : : : : : ; 5 . A | ( +.} } +.! ",
"} +.} } } ` G X 5 : : : : : : : : : : : : : : : : : : : : : : : : : : : : : : ; : 5 X D | / } O.} +.",
" .} } | | Y O 5 q : : : : : : : : : : : : : : : : : : : : : : : : : : : : : : : : : = 6 U | | } +.} ",
"} } } ` Q t < q : : : : : : : : : : : : : : : : : : : : : : : : : : : : : : : : : : q < r W ( } } } ",
"} +.} [ B % 0 : : : : : : : : : : : : : : : : : : : : : : : : : : : : : : : : : : : : 0 % m | | } +.",
"+.} | T O ; : : : : : : : : : : : : : : : : : : : : : : : : : : : : : : : : : : : : : : ; 8 Y | | { ",
"! | [ k % : : : : : : : : : : : : : : : : : : : : : : : : : : : : : : : : : : : : : : : : % l ` ( +.",
"+.[ T @ $ : : : : : : : : : : : : : : : : : : : : : : : : : : : : : : : : : : : : : : : : 5 + Y o.! ",
"! [ C % : : : : : : : : : : : : : : : : : : : : : : : : : : : : : : : : : : : : : : : : : : 1 B | +.",
"+.^ y = : : : : : : : : : : : : : : : : : : : : : : : : : : : : : : : : : : : : : : : : : : $ y ( ] ",
"| R % : : : : : : : : : : : : : : : : : : : : : : : : : : : : : : : : : : : : : : : : : : : : < R | ",
"[ J % : : : : : : : : : : : : : : : : : : : : : : : : : : : : : : : : : : : : : : : : : : : : % J | ",
"[ N % : : : : : : : : : : : : : : : : : : : : : : : : : : : : : : : : : : : : : : : : : : : : % N [ ",
"( k & : : : : : : : : : : : : : : : : : : : : : : : : : : : : : : : : : : : : : : : : : : : : $ k ( ",
"^ j & : : : : : : : : : : : : : : : : : : : : : : : : : : : : : : : : : : : : : : : : : : : : $ h ~ ",
"Q d * : : : : : : : : : : : : : : : : : : : : : : : : : : : : : : : : : : : : : : : : : : : : * d ( ",
"^ d & : : : : : : : : : : : : : : : : : : : : : : : : : : : : : : : : : : : : : : : : : : : : & d Q ",
"Q j & : : : : : : : : : : : : : : : : : : : : : : : : : : : : : : : : : : : : : : : : : : : : & j ^ ",
"( k & : : : : : : : : : : : : : : : : : : : : : : : : : : : : : : : : : : : : : : : : : : : : & k ^ ",
"[ N & : : : : : : : : : : : : : : : : : : : : : : : : : : : : : : : : : : : : : : : : : : : : % N [ ",
"[ J % : : : : : : : : : : : : : : : : : : : : : : : : : : : : : : : : : : : : : : : : : : : : 1 K | ",
"o.R 7 : : : : : : : : : : : : : : : : : : : : : : : : : : : : : : : : : : : : : : : : : : : : 7 R | ",
"] [ u * : : : : : : : : : : : : : : : : : : : : : : : : : : : : : : : : : : : : : : : : : ; = y ^ +.",
"+.[ B % 0 : : : : : : : : : : : : : : : : : : : : : : : : : : : : : : : : : : : : : : : : 0 % C | ! ",
"' | R @ - : : : : : : : : : : : : : : : : : : : : : : : : : : : : : : : : : : : : : : : : = @ T ( +.",
"+.] [ n % : : : : : : : : : : : : : : : : : : : : : : : : : : : : : : : : : : : : : : : : & k [ | ! ",
"] | | Y 6 ; : : : : : : : : : : : : : : : : : : : : : : : : : : : : : : : : : : : : : : 0 O R | / +.",
"o.X.} [ m % 0 : : : : : : : : : : : : : : : : : : : : : : : : : : : : : : : : : : : : 0   B | / +.} ",
"} X.} [ W r - q : : : : : : : : : : : : : : : : : : : : : : : : : : : : : : : : : : q < t Q | } } } ",
"} X.X.| | U 6 = ; : : : : : : : : : : : : : : : : : : : : : : : : : : : : : : : : : 3 6 Y | | } } +.",
"+.] X.o./ | D 1 5 ; : : : : : : : : : : : : : : : : : : : : : : : : : : : : : : : 5 X G ` ..} } +.! ",
"! +.} } ..( ( A X - : : : : : : : : : : : : : : : : : : : : : : : : : : : : : ; 5 . D [ | } } o.} +.",
"+.} } } _ o./ | D 1 - 0 : : : : : : : : : : : : : : : : : : : : : : : : : : 0 4 o S ( o.] +.} } +.! ",
"! +.} } +./ +.( | P # & ; : : : : : : : : : : : : : : : : : : : : : : : : q % w P [ | ! +.} } O.! +.",
"+.} O.} } +._ +.[ | E f 1 - 5 ; : : : : : : : : : : : : : : : : : : ; 0 - X x T | ..} +.! +.} } +.} ",
"} +.} } +.} ..}  .| | ( F r   * q : : : : : : : : : : : : : : : : : - % e K ( o.[ } +.} +.} X.X.} +.",
"} } } } } } } } } } } | | W S u 1 % 2 3 0 0 0 : : : q 0 0 0 5 < % 1 y Z ~ | | } } } } ..} X.} } } } ",
" .} } +.}  .}  .} }  .| ` | | ^ I n i + X % & * $ $ & & % . @ r M I ^ | [ ( +.} } O.} } } X.} } } } ",
"} +.} }  .) +.}  . .} } } +.{ | o.` ^ U H V b z z g c b V H Y ~ | +.| } } +.} } } } .._ +.} } +.} +.",
"+.} } } } +.! +.} } +.} +.! +.} / | ( | | | | ( | ( | [ [ | ( +./ | ..} +./ +.} } O.] +.} +.} } +.{ ",
"! +.} } +.! +.} +.} } +.! +.} } ..} +.! +.{ { +.! +.' X.} { +.! +._ } +.! +.! +.} } +.! +.' } +.} +."
};
