/* XPM */
static char *_fa726006aee4fca9bae176c1cfdbf57jVuvyL8PYuwdK2i8[] = {
/* columns rows colors chars-per-pixel */
"50 50 169 2 ",
"   c None",
".  c #020201",
"X  c #090705",
"o  c #0C0A06",
"O  c #0E0C08",
"+  c #120F0A",
"@  c #161306",
"#  c #15120C",
"$  c #1B170F",
"%  c #241E0B",
"&  c #211C13",
"*  c #27200B",
"=  c #2C240D",
"-  c #282217",
";  c #2B2518",
":  c #252015",
">  c #382E10",
",  c #342D1D",
"<  c #3B3011",
"1  c #3E341C",
"2  c #3B3322",
"3  c #5E0F16",
"4  c #4A1512",
"5  c #471C12",
"6  c #531314",
"7  c #5A1516",
"8  c #531E15",
"9  c #680F19",
"0  c #710F1B",
"q  c #6A1519",
"w  c #6B1E1B",
"e  c #74131C",
"r  c #7D121D",
"t  c #74181C",
"y  c #472213",
"u  c #4B2414",
"i  c #4B2B14",
"p  c #532416",
"a  c #592717",
"s  c #512C16",
"d  c #5E2918",
"f  c #5D2418",
"g  c #413513",
"h  c #4A3D15",
"j  c #4A3917",
"k  c #523316",
"l  c #543A17",
"z  c #5A3419",
"x  c #573F18",
"c  c #5A3818",
"v  c #622519",
"b  c #65391B",
"n  c #68371C",
"m  c #413725",
"M  c #433925",
"N  c #4B3F20",
"B  c #4A3F2A",
"V  c #4E4117",
"C  c #4E411F",
"Z  c #504217",
"A  c #53451C",
"S  c #5D431A",
"D  c #56481E",
"F  c #5B4B1C",
"G  c #68491D",
"H  c #63521D",
"J  c #6A531E",
"K  c #6B581F",
"L  c #71501F",
"P  c #705C1F",
"I  c #4D4123",
"U  c #4E422B",
"Y  c #52462D",
"T  c #584B2F",
"R  c #554725",
"E  c #5F5029",
"W  c #564931",
"Q  c #5A4D32",
"!  c #5E5035",
"~  c #655422",
"^  c #6E5B23",
"/  c #695723",
"(  c #765721",
")  c #785621",
"_  c #7A5B22",
"`  c #625434",
"'  c #6C5C3C",
"]  c #655639",
"[  c #766022",
"{  c #7C6423",
"}  c #72613E",
"|  c #746342",
" . c #796744",
".. c #7D6A47",
"X. c #7F6D48",
"o. c #82121F",
"O. c #871220",
"+. c #891320",
"@. c #941423",
"#. c #9B1625",
"$. c #A31727",
"%. c #A51827",
"&. c #AC1929",
"*. c #B41B2B",
"=. c #BD1E2D",
"-. c #C11F2E",
";. c #836625",
":. c #836B26",
">. c #8A6F27",
",. c #8A7227",
"<. c #8C7328",
"1. c #917529",
"2. c #95792B",
"3. c #9B7E2C",
"4. c #816E49",
"5. c #86734C",
"6. c #8A764E",
"7. c #8C784F",
"8. c #8E7950",
"9. c #917C53",
"0. c #9D812D",
"q. c #A3852E",
"w. c #A7892F",
"e. c #AA8B2F",
"r. c #A68930",
"t. c #AB8D31",
"y. c #AF9032",
"u. c #B39333",
"i. c #B79834",
"p. c #BB9A35",
"a. c #C19E37",
"s. c #C4A137",
"d. c #C5A338",
"f. c #CAA539",
"g. c #CEAA3B",
"h. c #D2AC3B",
"j. c #D6B13D",
"k. c #DCB43E",
"l. c #DFB83F",
"z. c #9C8659",
"x. c #9F885A",
"c. c #968055",
"v. c #A48C5D",
"b. c #A9905F",
"n. c #AC9362",
"m. c #B49A66",
"M. c #B99E68",
"N. c #BDA26B",
"B. c #E4BB41",
"V. c #E9BF42",
"C. c #C2A66D",
"Z. c #C5A86F",
"A. c #C7AA70",
"S. c #CBAD72",
"D. c #CEB074",
"F. c #D1B275",
"G. c #D5B678",
"H. c #EDC243",
"J. c #F2C645",
"K. c #F6C946",
"L. c #F9CB47",
"P. c #FFCF48",
"I. c #FDD048",
"U. c #FFD048",
"Y. c #FFD149",
"T. c #FED048",
"R. c #FFD249",
"E. c #FFD349",
"W. c #FFD149",
/* pixels */
"                                                . $ ; ; #                                           ",
"                                              & ' n.N.N.v.Y                                         ",
"                                            2 v.F.F.D.F.F.N.2                                       ",
"                                          m m.F.D.D.D.D.F.G.'                                       ",
"                                        2 m.D.D.D.D.F.D.n.X.M                                       ",
"                                    # Y M.F.D.D.F.S.v.Q C :.<.=                                     ",
"                            o - U | v.S.D.D.D.F.n.` D r.H.U.E.a.=                                   ",
"                        # U 9.M.S.F.S.D.D.F.A.4.C 3.H.U.P.U.U.E.r.@                                 ",
"                      & 5.S.F.F.D.D.D.D.F.m.W ^ k.U.U.P.P.U.V.j.H.:.                                ",
"                    $ 9.F.F.F.S.D.D.D.D.c.I 0.L.U.P.U.U.L.3.i 5 l t.V                               ",
"                  O  .D.D.S.D.D.D.D.S. .R f.Y.P.U.P.P.U.u.6 $.*.@.z <.                              ",
"                  Q S.D.D.D.D.D.F.N.` ^ B.W.P.P.P.P.P.U._ #.-.=.-.t 0.<                             ",
"              X W C.D.D.D.D.D.F.b.R <.K.P.P.P.P.P.P.U.U.( #.-.=.-.w i.K                             ",
"      & , 2 B 4.Z.D.D.D.D.D.D.9.C u.U.K.L.P.P.P.P.P.U.U.y.6 %.*.O.c H.>.                            ",
"  # ' m.A.A.S.F.D.D.D.D.F.Z.' D g.J.<.l x q.L.U.P.P.P.P.L.1.i y S g.E.t.o                           ",
"  ] S.D.D.D.D.D.D.D.D.F.n.Y [ V.P.;.7 #.@.4 q.U.P.P.U.U.U.I.H.l.K.U.U.J.H                           ",
"$ n.D.D.D.D.D.D.D.D.S.5.I q.L.Y.k.f *.-.-.%.b L.U.P.P.P.P.P.U.U.P.P.P.Y.l.g                         ",
"M A.D.D.D.D.D.D.D.n.W ~ h.Y.U.Y.g.w =.=.=.*.n L.P.P.P.P.P.P.P.U.P.P.P.P.Y.d.*                       ",
"W S.D.D.D.D.D.N.} C r.L.U.U.P.U.H.c #.=.*.0 ;.U.P.P.Y.P.J.P.U.U.P.P.P.P.P.U.<.                      ",
"U S.D.D.D.S.c.I :.B.Y.U.P.P.P.P.U.p.i 6 4 H V.U.P.U.f.~ k / g.Y.P.P.P.P.P.P.H.V                     ",
"2 C.D.D.S.| D d.I.U.P.P.P.P.P.P.P.U.B.i.d.J.U.P.P.k.s o.#.r k B.U.U.P.P.P.U.U.u.#                   ",
": n.F.D.| [ H.E.P.P.P.P.U.P.P.P.P.P.U.Y.Y.U.P.P.U.2.r -.-.-.e q.Y.U.P.P.P.U.U.J.F                   ",
"  5.G.n./ H.U.P.P.P.P.P.P.P.U.U.P.U.U.P.U.P.P.P.U.:.@.-.=.-.O.3.Y.U.P.U.P.P.P.U.y.                  ",
"  , N.5.0.U.U.P.P.P.P.P.P.U.Y.Y.U.U.P.P.P.P.P.P.U.u.7 *.=.&.8 g.Y.P.P.P.P.P.P.U.H.h                 ",
"    Y ! ^ L.W.W.U.P.P.P.P.L.i._ :.f.P.P.P.P.P.P.P.K.{ 5 6 y 0.P.P.P.U.Y.P.L.U.U.U.1.                ",
"      # , :.V.W.E.U.U.U.U.2.4 r 0 u p.P.P.P.P.P.P.U.L.g.i.k.P.P.P.U.U.d.~ l _ l.E.h.*               ",
"        M U A <.r.3.^ r.l.f &.-.-.@.( L.P.P.P.P.P.P.U.E.E.Y.P.P.P.U.h.u o.#.0 S H.L.F               ",
"          & M Q ` ' 5.~ y.w -.=.=.*.b L.P.P.P.P.P.U.B.d.j.L.P.P.P.U.;.+.-.-.=.q p.E.0.              ",
"              ; | M.G.} t.d &.-.-.O._ L.P.P.P.P.P.t.i 4 y ,.L.P.P.P.) #.-.=.-.t y.E.j.=             ",
"                  ;  .' r.3.4 q 3 k j.Y.P.P.P.P.j.p #.=.&.7 u.Y.U.U.3.9 *.-.%.p k.U.L.~             ",
"                      # g k.s.<.0.k.J.H.L.P.P.Y.q.r -.-.=.@.;.Y.P.U.H.J 4 7 y r.U.P.E.i.@           ",
"                        . > :.0.,.~ C I ~ j.Y.P.r.e -.=.-.O.1.Y.P.P.P.J.a.u.k.U.P.P.U.J.A           ",
"                            . . , 6.m.N.5./ K.U.l.s O.&.+.u j.U.U.P.P.U.W.W.W.P.P.W.U.U.q.          ",
"                                o 2 4.C.F.' i.U.P.d.F i S s.U.U.P.P.P.P.P.P.W.W.J.s.a.J.B.<         ",
"                                    o , 5.z.~ H.U.U.L.H.L.E.U.U.P.P.P.P.P.P.E.j.S 4 4 x j.[         ",
"                                        X 2 ; { L.U.P.V.s.p.V.U.P.P.P.P.P.W.L.G r =.=.r ( q.        ",
"                                            . X A <.[ C Y Y D h.U.U.P.P.P.W.l.v =.=.-.*.n i.%       ",
"                                                . . M n.D.F.9.^ K.P.P.P.P.P.B.v *.=.-.&.b k.h       ",
"                                                    O 2 6.Z.F.] p.E.W.W.W.W.P.{ 9 #.#.6 3.U.,.      ",
"                                                        X 2 7.z.R s.H.B.g.s.H.H.:.k l 0.K.U.k.<     ",
"                                                            O 2 W M A I I I E V.U.J.L.E.U.U.U.0.    ",
"                                                                # ,  .m.S.S...^ H.V.q.:.d.L.P.H.h   ",
"                                                                    O M 8.Z.D.} A C ! ..I d.E.U.2.  ",
"                                                                        O 2 8.N.n.m.S.G.x./ g.L.h.* ",
"                                                                            O M 8.A.F.D.S. .1 y.J.h ",
"                                                                                O M 8.Z.F.F.n.^ J.H ",
"                                                                                    O M 8.A.S.` f.H ",
"                                                                                        O M 8.8.C % ",
"                                                                                            O M Q # ",
"                                                                                                X . "
};
