/* XPM */
static char *_625407593226[] = {
/* columns rows colors chars-per-pixel */
"50 50 167 2 ",
"   c #060606",
".  c #0E0907",
"X  c #070808",
"o  c #0C0B0B",
"O  c #0A0706",
"+  c #130D0B",
"@  c #190F0A",
"#  c #14100F",
"$  c #1A110D",
"%  c #0F1111",
"&  c #141414",
"*  c #1B1514",
"=  c #1C1816",
"-  c #161718",
";  c #1D1619",
":  c #171818",
">  c #1B1C1C",
",  c #321F09",
"<  c #221613",
"1  c #281712",
"2  c #231A15",
"3  c #2A1A15",
"4  c #2A1719",
"5  c #241C1C",
"6  c #2B1D1B",
"7  c #381711",
"8  c #311B17",
"9  c #3A1811",
"0  c #321E1C",
"q  c #2F230F",
"w  c #35240D",
"e  c #3C2C0F",
"r  c #262016",
"t  c #2B2214",
"y  c #26211B",
"u  c #2D211C",
"i  c #312617",
"p  c #372C16",
"a  c #34221D",
"s  c #39241E",
"d  c #382E1F",
"f  c #3A311E",
"g  c #1E1F20",
"h  c #221D21",
"j  c #2A1C20",
"k  c #321F21",
"l  c #1F2121",
"z  c #222424",
"x  c #2B2322",
"c  c #292826",
"v  c #252728",
"b  c #2C272A",
"n  c #262929",
"m  c #2A2C2D",
"M  c #352421",
"N  c #3C2521",
"B  c #3D2922",
"V  c #362D2F",
"C  c #3B2F2B",
"Z  c #332926",
"A  c #3D3523",
"S  c #2E2F30",
"D  c #2E3131",
"F  c #323535",
"G  c #343738",
"H  c #353939",
"J  c #393D3D",
"K  c #3E3838",
"L  c #432A0C",
"P  c #40251F",
"I  c #48251D",
"U  c #572C1E",
"Y  c #443717",
"T  c #443519",
"R  c #483A1B",
"E  c #533F1C",
"W  c #6C371E",
"Q  c #412523",
"!  c #432A24",
"~  c #4A2D25",
"^  c #462E28",
"/  c #4A2E28",
"(  c #5E2C20",
")  c #522F29",
"_  c #443026",
"`  c #4C3127",
"'  c #413926",
"]  c #47322E",
"[  c #4C3329",
"{  c #443C2A",
"}  c #4F392C",
"|  c #513027",
" . c #55322A",
".. c #5A352B",
"X. c #54392E",
"o. c #5C3A2E",
"O. c #483130",
"+. c #413C3F",
"@. c #443834",
"#. c #5D3D30",
"$. c #6E3820",
"%. c #60372C",
"&. c #603B2F",
"*. c #68382D",
"=. c #6E3625",
"-. c #613E31",
";. c #3D403E",
":. c #59441D",
">. c #57421D",
",. c #60450D",
"<. c #6A4E10",
"1. c #634C1B",
"2. c #71571C",
"3. c #755615",
"4. c #5E4133",
"5. c #564E3A",
"6. c #73402B",
"7. c #755C26",
"8. c #634032",
"9. c #774A3F",
"0. c #7C642B",
"q. c #3B3F40",
"w. c #3D4242",
"e. c #414646",
"r. c #434949",
"t. c #4B4E4E",
"y. c #5C5440",
"u. c #4A5050",
"i. c #565D5D",
"p. c #515451",
"a. c #685D40",
"s. c #7A7058",
"d. c #953F1F",
"f. c #A03720",
"g. c #8B4C2C",
"h. c #964020",
"j. c #974228",
"k. c #A74027",
"l. c #B54821",
"z. c #AF592E",
"x. c #B14E33",
"c. c #B15D33",
"v. c #9F7924",
"b. c #8E763E",
"n. c #BD6B27",
"m. c #A47C25",
"M. c #A57F31",
"N. c #C35A24",
"B. c #DC602B",
"V. c #CA7423",
"C. c #DB7826",
"Z. c #EE7C2B",
"A. c #F8762A",
"S. c #FE7D28",
"D. c #81775A",
"F. c #A88435",
"G. c #B08A36",
"H. c #B48E39",
"J. c #F9842D",
"K. c #AE8E4A",
"L. c #BE9B4B",
"P. c #A58D52",
"I. c #898168",
"U. c #AC9662",
"Y. c #C3A153",
"T. c #CAA962",
"R. c None",
/* pixels */
"R.R.R.R.R.R.R.R.R.R.R.R.R.R.R.R.R.R.R.R.R.R.R.R.R.R.R.R.R.R.R.R.R.R.R.R.R.R.R.R.R.R.R.R.R.R.R.R.R.R.",
"R.R.R.R.R.R.R.R.R.R.R.R.R.R.R.R.: : z > : : z D m n v v z : > z : : R.R.R.R.R.R.R.R.R.R.R.R.R.R.R.R.",
"R.R.R.R.R.R.R.R.R.R.R.R.R.R.& z J D F z > J w.w.;.G H F D > m H S n > : R.R.R.R.R.R.R.R.R.R.R.R.R.R.",
"R.R.R.R.R.R.R.R.R.R.R.R.z z : z e.J F m g w.w.G G F F F D z e.J F F g : z y R.R.R.R.R.R.R.R.R.R.R.R.",
"R.R.R.R.R.R.R.R.R.R.m F G F v z G F F m > G G F G F G F m z ;.G H D g n F D v z R.R.R.R.R.R.R.R.R.R.",
"R.R.R.R.R.R.R.R.R.n e.w.H F D > v F S m > m G H G F S n g > D H G v g D F F F F l R.R.R.R.R.R.R.R.R.",
"R.R.R.R.R.R.R.R.n n w.J F F S v > m n z : > n n v v > : : : n D F g G H G F G S z z R.R.R.R.R.R.R.R.",
"R.R.R.R.R.R.> H w.F n m F F S v & > z g : h g > g y z z z > v n z : J ;.G F n v F F n : R.R.R.R.R.R.",
"R.R.R.R.R.R.v J G H v > m D n > > g z h 6 k 0 j 5 j k k k M b m m h z F H n > m F F D g R.R.R.R.R.R.",
"R.R.R.R.R.: H G H F F z : h g l g 5 M Q / o. .) N !  . . .#.N M h S n > n : l S F H F S : R.R.R.R.R.",
"R.R.R.R.R.: n F D H S z - > z b j k .... .o.%...! Q .. ./ O.../ k x K J S : n H F F G S : R.R.R.R.R.",
"R.R.R.R.& z g c D D D y - g h N [ Q | Q Q ~ ! ! s a ! s u N ~ ~ M ! N r.u.F F w.G F n g > : R.R.R.R.",
"R.R.R.R.n w.S > l m v > l z 5 / } B a :.{ u 1.5 w p * e y 2 e 3 i [ ! b i.;.F w.H n g n S g R.R.R.R.",
"R.R.R.: D w.H G m g > > h h ~ -.} B B F.D.{ H.m 1.0.> <.A t ,.u u [ o.~ G r.w.;.S n S F H n > R.R.R.",
"R.R.R.n H G F G G n : z h k ) -.} B d K.I.{ Y.t.2.P.F m.5.p 3.i u [ ..| k +.i.H w.;.F @.8.F v R.R.R.",
"R.R.R.n J G G F F v > g k ) ) #.[ ! N K.D.{ T.p.7.U.G m.y.R v.i 0 ] ....) O.u.w.w.w.H 4.c.G z R.R.R.",
"R.R.R.l g.8.@.K n g h j ~  . .#.} _ B K.s.A L.;.7.b.y F.' Y m.i u ~ .. ...~ V t.w.w.w.K o.C ( R.R.R.",
"R.R.m r.c.W f.] v g j Q .. ./ ..[ ! s M.a.d H.c 3.0.: m.T Y m.a u ~ .. . .o./ +.w.w.w.m U j.V x R.R.",
"R.R.m 9.B.n.$.x g g h ~  . .) ..` B s >.d t :.5 T T = :.t i >.6 u ~ ......&.[ V D n n M l.c.*.I R.R.",
"R.R.Z x.S.J.*.z - g N .. .)  . .~ B ! a 6 3 5 i u u B N Q ! B ! s ~ .. ...o.8.N g : : =.A.Z.f.s R.R.",
"R.R.9 N.V.C.d.2 - h k ..[  . ...B ! o. .! ! B ] B ! o. ...4.#. .N ~  .^ [ ..&.s > > x d.C.V.N.7 R.R.",
"R.R.% w , L 2 z g h Q #.! B a ^ B _ 8. ...X.] o._ B o.o.o.-.o. .s ! B 5 u _ ~ $ o : J r L , w % R.R.",
"R.R.: X X X > z > h ^ ] 5 = = N ! _ 8... .o.[ -.] B ....o.o... .d u = # # $ = & X & F l   o X : R.R.",
"R.R.z > o X g z : 5 ! M > & & * 2 u B a a s a N u 3 s M s N a a 6 & $ z : & $ & > > m z X X : > R.R.",
"R.R.m F X o D m > g ! x g : o . o & % & & - & - : - & & & & % & & & : D n & . + l l w.H o X l v R.R.",
"R.R.m F X o m m > h ! N % o o # * ; 6 6 5 6 5 a z y x u u x u 5 = & & & & o * : : l w.;.o X v l R.R.",
"R.R.n m X % n l > h Q  .< o + M B N .. . . .....! ! .. . ... ...P d * . . < 3 + X % D F % X v l R.R.",
"R.R.z v & % : : > h N / B Z 5 ~ ! N  . . ./  .%.! s .... ... ...P [ _ * 2 !  .3 : : : g & - l l R.R.",
"R.R.g l - & g : - ; M 4 y Z 5 = C M ....)  . ...! N .... . . ...! [ ..! ) ..%.0 > > : > & - > > R.R.",
"R.R.m ;.l l S z > h 5 * < 3 3 $ 5 i ....|  .)  .! N .. . . . ...s ` ..X.)  ...N m y D H l > n z R.R.",
"R.R.m r.n > n n > h * 2 s ! I 6 # 0 .... .)  ...! s .... ... ...! [ %...)  ...Q n l ;.w.m l n z R.R.",
"R.R.n w.n z z > > h 4 2 u 6 0 1 * a ..%. . . ...s Q .. .)  . ...! [ ....) ..#.! n l l G F z S z R.R.",
"R.R.> l : > > : : > Q ~ < * * 4 i N .... .)  ...N !  . ..... ...! ~ ....)  .%.! 5 > : g l : z > R.R.",
"R.R.> z > n D m > > Q ..~ Q ~ ..B B ...... . ...Q s  . .....) ..s ~ ......) o.! c g J w.n : l : R.R.",
"R.R.m e.m D H m > h N #... .) ..B B &.X... . ...B P  . .........s ~ .. .......Q b z q.q.m v D l R.R.",
"R.R.m r.F F F m > h N #.X./ )  .! ! 8.....)  ...N s ) ....%.) ..N !  .[ [ | ..Q b z J G F D F l R.R.",
"R.R.l ;.H F D n > h k o. .Z !  .! _ 4. . . .o...! s  ... .......! ! ! B M ^ ~ 3 : > H H F F m > R.R.",
"R.R.: l v v l l : 4 k ) M * u ] _ ! o... ...8.o.s !  .....o.....! a u $ @ 2 2 +   & n v v v > : R.R.",
"R.R.n ;.F m m n > h N s > : & u B B  .| ~  .o.| s N ~  . .| | [ a = $ : & & : = > > G J D m m z R.R.",
"R.R.m e.H H F D > h M 6 > : o . # & & * : * > : * & & * * : * * : & : S l & . + z z w.w.H F F z R.R.",
"R.R.v J G G m z > h Q 4 & & o o % & & & : : * > g ; > : : > : : & & : z h # * * z y n H F F D g R.R.",
"R.R.z D m m n : : h k 0 o . . 2 B a ~ ~ ~ ! ] / N M ! ~ ~ [ / ! u * + o o + * # X & : m m m n > R.R.",
"R.R.& v m v z - : > Q / u u 5 P [ B ........#...! N  .) ..#... .N M 6 2 < s Q @ o & : v z v > : R.R.",
"R.R.: G e.H F v > h Q ..X. .[ X.} s  . . ...-...Q N  .) ..-.o. .N B / X..... .8 v z F J G G n : R.R.",
"R.R.n e.w.H F S > h 0 ~ [ | ~ ~ B 6 ~ I P ~  .~ a i Q Q ! | ! I 6 a ~ X.[ ~ ! 0 v z w.w.F F S > R.R.",
"R.R.m r.H F S m > g < < $ $ @ @ @ @ @ @ $ @ $ @ @ @ @ @ @ $ @ @ @ @ @ + @ @ $ < z l J H F F D y R.R.",
"R.R.n J F S m v - R.R.R.R.R.R.R.R.R.R.R.R.R.R.R.R.R.R.R.R.R.R.R.R.R.R.R.R.R.R.R.R.: S D D m m g R.R.",
"R.R.R.> > > > > R.R.R.R.R.R.R.R.R.R.R.R.R.R.R.R.R.R.R.R.R.R.R.R.R.R.R.R.R.R.R.R.R.R.> > > > > R.R.R.",
"R.R.R.R.R.R.R.R.R.R.R.R.R.R.R.R.R.R.R.R.R.R.R.R.R.R.R.R.R.R.R.R.R.R.R.R.R.R.R.R.R.R.R.R.R.R.R.R.R.R.",
"R.R.R.R.R.R.R.R.R.R.R.R.R.R.R.R.R.R.R.R.R.R.R.R.R.R.R.R.R.R.R.R.R.R.R.R.R.R.R.R.R.R.R.R.R.R.R.R.R.R."
};
