/* XPM */
static char *cdaf7977ca55422d85b2d465b8c4f6e9bD1Al126DJjdIFFv[] = {
/* columns rows colors chars-per-pixel */
"50 50 188 2 ",
"   c None",
".  c #0C0200",
"X  c #110700",
"o  c #1C1A17",
"O  c #231D18",
"+  c #1D3008",
"@  c #322B0F",
"#  c #253C08",
"$  c #263807",
"%  c #393D0E",
"&  c #3D2916",
"*  c #393311",
"=  c #353230",
"-  c #2B2725",
";  c #432D0F",
":  c #5A3E0D",
">  c #4A241E",
",  c #47281D",
"<  c #512E11",
"1  c #483A17",
"2  c #573319",
"3  c #63360F",
"4  c #623713",
"5  c #653914",
"6  c #6A3A10",
"7  c #713F14",
"8  c #4C2520",
"9  c #4B2C27",
"0  c #512621",
"q  c #542922",
"w  c #5A2D24",
"e  c #5D3026",
"r  c #563A36",
"t  c #612F27",
"y  c #643229",
"u  c #6A352D",
"i  c #72372F",
"p  c #73392F",
"a  c #753A30",
"s  c #294506",
"d  c #2E4C06",
"f  c #2B4508",
"g  c #3A410D",
"h  c #374A09",
"j  c #335605",
"k  c #355A05",
"l  c #385E06",
"z  c #3B5608",
"x  c #3B6405",
"c  c #3E6A05",
"v  c #3D6508",
"b  c #4C470A",
"n  c #4B5B0D",
"m  c #43580C",
"M  c #5B5E0A",
"N  c #434511",
"B  c #48501F",
"V  c #6D470F",
"C  c #68590D",
"Z  c #6E4810",
"A  c #7D4515",
"S  c #7A4517",
"D  c #416D05",
"F  c #456509",
"G  c #476908",
"H  c #476307",
"J  c #546409",
"K  c #5B6C07",
"L  c #447305",
"P  c #467A04",
"I  c #497C05",
"U  c #4C7309",
"Y  c #4E7B0B",
"T  c #507B0E",
"R  c #587A07",
"E  c #486611",
"W  c #546B1E",
"Q  c #6C640D",
"!  c #636A0A",
"~  c #75690F",
"^  c #6A760B",
"/  c #79760E",
"(  c #7D6311",
")  c #4C433A",
"_  c #69423E",
"`  c #596C23",
"'  c #5B544D",
"]  c #6C4E4A",
"[  c #765352",
"{  c #705946",
"}  c #746A45",
"|  c #7D7976",
" . c #854A17",
".. c #8C4C15",
"X. c #8E4E18",
"o. c #824614",
"O. c #904E16",
"+. c #885816",
"@. c #965117",
"#. c #9A5417",
"$. c #92511A",
"%. c #9C5519",
"&. c #985B19",
"*. c #A45A1B",
"=. c #AC5D1A",
"-. c #887312",
";. c #987E13",
":. c #AD621D",
">. c #A66818",
",. c #B4621C",
"<. c #B9651C",
"1. c #AC7319",
"2. c #BB781B",
"3. c #A5652E",
"4. c #BF6D2A",
"5. c #C66B1E",
"6. c #CC6F1F",
"7. c #CC761F",
"8. c #C6771D",
"9. c #C36B20",
"0. c #CA6E20",
"q. c #CD7021",
"w. c #D47421",
"e. c #DB7621",
"r. c #DC7922",
"t. c #DD7D2C",
"y. c #C47939",
"u. c #D47C32",
"i. c #E47B23",
"p. c #EC7F23",
"a. c #E17F2B",
"s. c #87635B",
"d. c #9D7350",
"f. c #B17B51",
"g. c #B97A49",
"h. c #8A6661",
"j. c #827D78",
"k. c #927964",
"l. c #A87E77",
"z. c #4C8305",
"x. c #4F8804",
"c. c #518B05",
"v. c #5B8D06",
"b. c #5D8308",
"n. c #559304",
"m. c #5B9406",
"M. c #5B9C05",
"N. c #579803",
"B. c #5EA304",
"V. c #61A705",
"C. c #62A805",
"Z. c #D4823C",
"A. c #ED8024",
"S. c #ED8228",
"D. c #F48425",
"F. c #FA8625",
"G. c #FF8A27",
"H. c #FF8B28",
"J. c #B58054",
"K. c #AD837A",
"L. c #AE9077",
"P. c #B89171",
"I. c #CA8346",
"U. c #CC8A52",
"Y. c #CC905E",
"T. c #C79468",
"R. c #9A9794",
"E. c #A89A8E",
"W. c #A59990",
"Q. c #B58781",
"!. c #A6A5A4",
"~. c #BFBDBC",
"^. c #C08F89",
"/. c #C5928E",
"(. c #CB9792",
"). c #D29D96",
"_. c #D8A09B",
"`. c #C5A68C",
"'. c #C1B0A4",
"]. c #E1A7A1",
"[. c #CFC3B8",
"{. c #D1C1B4",
"}. c #BFC0C1",
"|. c #C7C6C6",
" X c #CDCAC8",
".X c #DDDDDC",
"XX c #FBFDFE",
"oX c #F4F6F7",
/* pixels */
"                                                                                                    ",
"                                                                                                    ",
"                    :.                                                                              ",
"                    w.A.,.5                                                                         ",
"                    9.H.G.i.%.                                                                      ",
"                    *.D.G.G.F.5.5                                                                   ",
"                    X.5.D.H.H.G.r.S                                                                 ",
"                    X.<.w.H.H.H.H.i.7                                                               ",
"                    X.<.<.i.G.G.H.H.q.                                                              ",
"                     .<.<.5.D.G.H.H.D.                                                              ",
"    A               A ,.<.,.5.A.H.H.H.:.                                                            ",
"    9.r.,.$.A 2       ,.<.,.,.<.w.p.D.:.                                                            ",
"    $.D.H.H.D.i.0.%.4 ..<.<.,...=.<.<. .        d v I x.n.n.c.I D f                                 ",
"      <.D.H.H.H.H.H.p.=.%.<.<.@...<.,.      d I B.V.C.C.C.C.B.B.C.M.I z                             ",
"      %.5.A.H.H.H.H.H.F.=.#.<.=...<.O.  s c m.C.C.C.C.B.b.^ ~ ! R M.C.M.I                           ",
"      X.,.0.D.H.H.H.H.H.w...,.*.@...; d D c.M.M.v.b.G ( q.p.F.D.r.-.M.C.V.c.                        ",
"      7 :.<.5.r.D.F.F.i.<.%.@.A 3 o.%.&.>.2.2.8.7.5.<.D.G.A.e.r.F.p.^ B.C.C.c.                      ",
"        #.<.<.<.<.5.<.#.A 6 6 ..7 =.<.5.D.H.F.H.G.F.H.A.3.k.E.E.y.G.>.^ c.B.C.x.                    ",
"        5 =.<.<.<.<.,.<.<.*.6 6 ..,.<.i.G.G.H.H.G.G.A.d.|.oXXXXXT.F.F.p.>.! B.M.G                   ",
"          7 ,.<.<.<.<.<.<.*.6 #.<.<.6.F.G.G.H.F.G.G.I. XR.| .XXXT.F.H.G.G.r./ ;.7.%.                ",
"            4 @.=.<.,.#.V b b C +.*.i.G.G.G.H.H.H.D.`.j.X - !.oXU.F.G.G.H.H.r.q.D.A.                ",
"                < 3 : z c P n.M.M.b.-.8.D.G.H.F.H.D.P.) . O |.{.a.H.G.H.H.H.S.L.J.S.*.              ",
"                  + x P c.B.V.V.B.C.B.m./ 8.D.H.H.G.t.{ ' !.[.I.F.H.H.H.H.H.y.}. Xu.<.              ",
"                + x I c.B.V.V.V.C.C.B.C.B.m./ 1.e.D.F.r.g.f.4.i.i.p.F.H.H.H.X.= }.U.5.              ",
"                k P x.B.C.C.V.V.V.V.V.V.V.C.B.M.R K C Q ! ! K J J M C +.<.A...o }.Y.H.*.            ",
"              $ D I B.C.V.V.V.V.V.V.V.V.V.V.C.m.x.n.N.B.V.C.B.B.B.B.B.n.R J V { '.Z.G.w.            ",
"              d P c.V.V.V.V.V.B.V.V.V.V.V.V.V.V.V.V.V.V.C.C.B.C.V.V.V.V.V.B.x.n &.F.H.0.            ",
"              k P N.C.V.V.V.B.L L n.C.V.V.V.V.V.V.V.V.V.B.C.C.C.V.V.V.V.B.C.C.B.R 1.H.0.            ",
"              x I B.V.V.V.V.V.M.M.L z.V.V.V.V.V.V.V.V.V.C.C.C.C.V.V.V.V.V.V.V.V.B.v.1.i.            ",
"              x I B.V.V.V.V.V.V.V.V.P L V.V.C.V.C.V.V.V.C.C.C.B.V.V.V.V.V.V.V.V.B.C.v.~ b           ",
"              l z.B.V.V.V.V.V.V.V.V.V.x P C.V.V.V.V.V.V.V.V.C.C.V.V.V.V.V.V.V.V.V.V.V.n.c.D         ",
"              j I V.V.V.V.V.V.V.V.V.V.n.$ I C.V.V.V.V.V.V.V.C.C.V.V.V.V.V.V.V.V.V.V.V.V.V.V.z.      ",
"              s I B.V.V.V.V.V.V.V.V.V.C.F @ x.C.C.C.C.V.V.V.V.C.V.V.V.V.V.V.V.V.V.V.V.V.V.V.V.L     ",
"                c M.C.V.V.V.V.V.V.V.V.C.n.& * c.C.C.V.V.V.V.V.V.V.V.V.V.V.V.V.V.V.V.V.V.V.V.C.m.f   ",
"                d n.C.V.V.V.C.V.V.V.V.V.B.g > % n.V.V.V.V.V.V.V.V.V.V.V.V.V.V.V.V.V.V.V.V.V.C.V.v   ",
"                  L C.V.V.V.V.V.V.V.V.V.C.D > 8 % m.C.V.V.V.V.V.V.V.V.V.V.V.V.V.V.V.V.V.V.V.V.V.L   ",
"                  $ c.C.V.V.V.V.V.V.V.V.C.c.& q > g N.C.V.V.C.V.V.C.V.V.V.V.V.V.V.V.V.V.C.C.V.C.I   ",
"                    f c.C.V.V.V.V.V.V.V.C.B.g 0 q > g n.C.V.V.V.V.V.V.V.C.V.V.V.V.V.V.N.c.L M.C.z.  ",
"                      # P B.C.V.V.V.V.V.C.C.F > q q 8 * P M.C.V.V.C.V.C.V.V.V.V.V.m.z.x.n.n.M.C.P   ",
"                          j x.V.V.V.V.V.C.C.z.& 8 > q q & m x.M.V.C.C.C.C.V.V.x.P z.m.V.V.V.V.V.x   ",
"                              D n.V.n.c.C.C.M.B [ r , > q w q N m G U Y U n g k N.B.C.V.V.V.C.n.    ",
"                                  I M.z.z.C.C.T s.^.h.9 > y p p y y t y y , E B.C.C.V.V.V.V.B.x     ",
"                                    l z.L n.V.B.W Q._.K.] _ u a a a p u 1 Y V.C.V.V.V.V.V.C.I       ",
"                                        k k M.C.N.` K._.(.).s.u p p y N c.C.V.V.V.V.V.C.B.I         ",
"                                            j B.C.B.T } K.(./._ 2 1 G B.C.V.V.V.V.C.C.n.v           ",
"                                              v B.C.B.N.T W ` E U m.C.V.C.C.C.C.V.n.D #             ",
"                                                c M.C.C.C.C.B.C.C.C.B.V.B.M.n.I k                   ",
"                                                  j z.B.C.C.C.V.M.n.P k v                           ",
"                                                      d v P D v                                     ",
"                                                                                                    "
};
