/* XPM */
static char *_d74579a2df44614a77649d1ff6a4ca7Od85pMUPInGPvcws[] = {
/* columns rows colors chars-per-pixel */
"50 50 2 1 ",
"  c None",
". c #BB0101",
/* pixels */
"                                                  ",
"                        ..                        ",
"                        ..                        ",
"                        ..                        ",
"                       ....                       ",
"                       ....                       ",
"                       ....                       ",
"                      ......                      ",
"                      ......                      ",
"                      ......                      ",
"                     ........                     ",
"            .        ........        .            ",
"           .        ..........        .           ",
"          ..        ..........        ..          ",
"         ...        ..........        ...         ",
"        ...        ............        ...        ",
"        ...        ............        ...        ",
"       ....        ............        ....       ",
"      .....       ..............       .....      ",
"      .....       ..............       .....      ",
"     ......      ................      ......     ",
"     ......      ................      ......     ",
"    .......      ................      .......    ",
"    .......     ..................     .......    ",
"   .........   ....................   .........   ",
"   .......... ...................... ..........   ",
"  ..............................................  ",
"  ..............................................  ",
" ................................................ ",
" ................................................ ",
" ................................................ ",
"..................................................",
"..................................................",
"  ..............................................  ",
"   ............................................   ",
"     ........................................     ",
"      ......................................      ",
"       ....................................       ",
"         ................................         ",
"          ..............................          ",
"            ..........................            ",
"             ........................             ",
"              ......................              ",
"                ..................                ",
"                 ................                 ",
"                   ............                   ",
"                    ..........                    ",
"                     ........                     ",
"                       ....                       ",
"                        ..                        "
};
